<?xml version="1.0" encoding="UTF-8"?>
<svg xmlns="http://www.w3.org/2000/svg" xmlns:xlink="http://www.w3.org/1999/xlink"
     width="1600" height="600" viewBox="0 0 1600 600" role="img" aria-labelledby="title desc">
  <title id="title">LearnVora Logo</title>
  <desc id="desc">Dark background with a colorful gradient graduation cap and open book icon, and the text LearnVora.</desc>
  <defs>
    <linearGradient id="gv" x1="0%" y1="0%" x2="100%" y2="0%">
      <stop offset="0%" stop-color="#6A5CFF"/>
      <stop offset="40%" stop-color="#9C27B0"/>
      <stop offset="70%" stop-color="#E91E63"/>
      <stop offset="100%" stop-color="#FF6F00"/>
    </linearGradient>
    <linearGradient id="gt" x1="0%" y1="0%" x2="100%" y2="0%">
      <stop offset="0%" stop-color="#FF6F00"/>
      <stop offset="100%" stop-color="#D81B60"/>
    </linearGradient>
    <filter id="soft-glow" x="-50%" y="-50%" width="200%" height="200%">
      <feGaussianBlur in="SourceGraphic" stdDeviation="12" result="blur"/>
      <feColorMatrix type="matrix" values="0 0 0 0 0.6
                                           0 0 0 0 0.1
                                           0 0 0 0 0.7
                                           0 0 0 1 0" result="glowColor"/>
      <feMerge>
        <feMergeNode in="glowColor"/>
        <feMergeNode in="SourceGraphic"/>
      </feMerge>
    </filter>
  </defs>

  <!-- Background -->
  <rect width="1600" height="600" fill="#0B0B14"/>

  <!-- Icon Group -->
  <g transform="translate(180,140)">
    <!-- soft glow behind icon -->
    <circle cx="110" cy="120" r="130" fill="url(#gv)" opacity="0.2" filter="url(#soft-glow)"/>
    <!-- Cap top -->
    <polygon points="0,90 220,0 440,90 220,180" fill="url(#gv)"/>
    <!-- Cap visor -->
    <polygon points="150,150 220,125 290,150 220,175" fill="url(#gv)"/>
    <!-- Tassel string -->
    <path d="M350,84 C350,140 350,180 350,210" stroke="url(#gv)" stroke-width="10" stroke-linecap="round"/>
    <!-- Tassel knot and tail -->
    <circle cx="350" cy="210" r="14" fill="url(#gv)"/>
    <path d="M335,214 L350,258 L365,214 Z" fill="url(#gv)"/>
    <!-- Open book (three arcs) -->
    <path d="M60,280 C140,250 300,250 380,280" fill="none" stroke="url(#gv)" stroke-width="22" stroke-linecap="round"/>
    <path d="M80,320 C160,292 280,292 360,320" fill="none" stroke="url(#gv)" stroke-width="18" stroke-linecap="round"/>
    <path d="M100,360 C180,336 260,336 340,360" fill="none" stroke="url(#gv)" stroke-width="14" stroke-linecap="round"/>
    <!-- Digital spark squares -->
    <rect x="-24" y="20" width="18" height="18" rx="4" fill="url(#gv)"/>
    <rect x="-6" y="-2" width="14" height="14" rx="3" fill="url(#gv)"/>
    <rect x="14" y="14" width="10" height="10" rx="2" fill="url(#gv)"/>
  </g>

  <!-- Brand Text -->
  <g transform="translate(620,255)">
    <text x="0" y="0" font-family="Inter, Poppins, Segoe UI, Arial, sans-serif"
          font-weight="800" font-size="140" fill="url(#gt)" letter-spacing="1">
      Learn<tspan fill="url(#gv)">Vora</tspan>
    </text>
    <text x="4" y="88" font-family="Inter, Poppins, Segoe UI, Arial, sans-serif"
          font-weight="500" font-size="40" fill="#AAB0C5" letter-spacing="6">
      EMPOWER YOUR LEARNING JOURNEY
    </text>
  </g>
</svg>
